<?xml version="1.0" encoding="UTF-8" standalone="no"?>
<!-- Created with Inkscape (http://www.inkscape.org/) -->

<svg
   width="100mm"
   height="100mm"
   viewBox="0 0 100 100"
   version="1.1"
   id="svg3335"
   inkscape:version="1.1.1 (eb90963e84, 2021-10-02)"
   sodipodi:docname="email.svg"
   xmlns:inkscape="http://www.inkscape.org/namespaces/inkscape"
   xmlns:sodipodi="http://sodipodi.sourceforge.net/DTD/sodipodi-0.dtd"
   xmlns:xlink="http://www.w3.org/1999/xlink"
   xmlns="http://www.w3.org/2000/svg"
   xmlns:svg="http://www.w3.org/2000/svg">
  <sodipodi:namedview
     id="namedview3337"
     pagecolor="#ffffff"
     bordercolor="#666666"
     borderopacity="1.0"
     inkscape:pageshadow="2"
     inkscape:pageopacity="0.0"
     inkscape:pagecheckerboard="0"
     inkscape:document-units="mm"
     showgrid="false"
     inkscape:zoom="0.75187991"
     inkscape:cx="351.7849"
     inkscape:cy="229.42494"
     inkscape:window-width="1868"
     inkscape:window-height="1016"
     inkscape:window-x="52"
     inkscape:window-y="27"
     inkscape:window-maximized="1"
     inkscape:current-layer="layer1" />
  <defs
     id="defs3332">
    <circle
       id="path-1"
       cx="22"
       cy="22"
       r="22" />
    <mask
       id="mask-2"
       maskContentUnits="userSpaceOnUse"
       maskUnits="objectBoundingBox"
       x="0"
       y="0"
       width="44"
       height="44"
       fill="white">
      <use
         xlink:href="#path-1"
         id="use6757" />
    </mask>
    <circle
       id="path-3"
       cx="22"
       cy="22"
       r="22" />
    <mask
       id="mask-4"
       maskContentUnits="userSpaceOnUse"
       maskUnits="objectBoundingBox"
       x="0"
       y="0"
       width="44"
       height="44"
       fill="white">
      <use
         xlink:href="#path-3"
         id="use6761" />
    </mask>
    <circle
       id="path-5"
       cx="22"
       cy="22"
       r="22" />
    <mask
       id="mask-6"
       maskContentUnits="userSpaceOnUse"
       maskUnits="objectBoundingBox"
       x="0"
       y="0"
       width="44"
       height="44"
       fill="white">
      <use
         xlink:href="#path-5"
         id="use6765" />
    </mask>
    <circle
       id="path-7"
       cx="22"
       cy="22"
       r="22" />
    <mask
       id="mask-8"
       maskContentUnits="userSpaceOnUse"
       maskUnits="objectBoundingBox"
       x="0"
       y="0"
       width="44"
       height="44"
       fill="white">
      <use
         xlink:href="#path-7"
         id="use6769" />
    </mask>
    <circle
       id="path-9"
       cx="22"
       cy="22"
       r="22" />
    <mask
       id="mask-10"
       maskContentUnits="userSpaceOnUse"
       maskUnits="objectBoundingBox"
       x="0"
       y="0"
       width="44"
       height="44"
       fill="white">
      <use
         xlink:href="#path-9"
         id="use6773" />
    </mask>
    <circle
       id="path-11"
       cx="22"
       cy="22"
       r="22" />
    <mask
       id="mask-12"
       maskContentUnits="userSpaceOnUse"
       maskUnits="objectBoundingBox"
       x="0"
       y="0"
       width="44"
       height="44"
       fill="white">
      <use
         xlink:href="#path-11"
         id="use6777" />
    </mask>
    <circle
       id="path-13"
       cx="22"
       cy="22"
       r="22" />
    <mask
       id="mask-14"
       maskContentUnits="userSpaceOnUse"
       maskUnits="objectBoundingBox"
       x="0"
       y="0"
       width="44"
       height="44"
       fill="white">
      <use
         xlink:href="#path-13"
         id="use6781" />
    </mask>
    <circle
       id="path-15"
       cx="22"
       cy="22"
       r="22" />
    <mask
       id="mask-16"
       maskContentUnits="userSpaceOnUse"
       maskUnits="objectBoundingBox"
       x="0"
       y="0"
       width="44"
       height="44"
       fill="white">
      <use
         xlink:href="#path-15"
         id="use6785" />
    </mask>
    <circle
       id="path-17"
       cx="22"
       cy="22"
       r="22" />
    <mask
       id="mask-18"
       maskContentUnits="userSpaceOnUse"
       maskUnits="objectBoundingBox"
       x="0"
       y="0"
       width="44"
       height="44"
       fill="white">
      <use
         xlink:href="#path-17"
         id="use6789" />
    </mask>
    <circle
       id="path-19"
       cx="22"
       cy="22"
       r="22" />
    <mask
       id="mask-20"
       maskContentUnits="userSpaceOnUse"
       maskUnits="objectBoundingBox"
       x="0"
       y="0"
       width="44"
       height="44"
       fill="white">
      <use
         xlink:href="#path-19"
         id="use6793" />
    </mask>
    <circle
       id="path-21"
       cx="22"
       cy="22"
       r="22" />
    <mask
       id="mask-22"
       maskContentUnits="userSpaceOnUse"
       maskUnits="objectBoundingBox"
       x="0"
       y="0"
       width="44"
       height="44"
       fill="white">
      <use
         xlink:href="#path-21"
         id="use6797" />
    </mask>
    <circle
       id="path-23"
       cx="22"
       cy="22"
       r="22" />
    <mask
       id="mask-24"
       maskContentUnits="userSpaceOnUse"
       maskUnits="objectBoundingBox"
       x="0"
       y="0"
       width="44"
       height="44"
       fill="white">
      <use
         xlink:href="#path-23"
         id="use6801" />
    </mask>
    <circle
       id="path-25"
       cx="22"
       cy="22"
       r="22" />
    <mask
       id="mask-26"
       maskContentUnits="userSpaceOnUse"
       maskUnits="objectBoundingBox"
       x="0"
       y="0"
       width="44"
       height="44"
       fill="white">
      <use
         xlink:href="#path-25"
         id="use6805" />
    </mask>
    <circle
       id="path-27"
       cx="22"
       cy="22"
       r="22" />
    <mask
       id="mask-28"
       maskContentUnits="userSpaceOnUse"
       maskUnits="objectBoundingBox"
       x="0"
       y="0"
       width="44"
       height="44"
       fill="white">
      <use
         xlink:href="#path-27"
         id="use6809" />
    </mask>
    <circle
       id="path-29"
       cx="22"
       cy="22"
       r="22" />
    <mask
       id="mask-30"
       maskContentUnits="userSpaceOnUse"
       maskUnits="objectBoundingBox"
       x="0"
       y="0"
       width="44"
       height="44"
       fill="white">
      <use
         xlink:href="#path-29"
         id="use6813" />
    </mask>
    <circle
       id="path-31"
       cx="22"
       cy="22"
       r="22" />
    <mask
       id="mask-32"
       maskContentUnits="userSpaceOnUse"
       maskUnits="objectBoundingBox"
       x="0"
       y="0"
       width="44"
       height="44"
       fill="white">
      <use
         xlink:href="#path-31"
         id="use6817" />
    </mask>
    <circle
       id="path-33"
       cx="22"
       cy="22"
       r="22" />
    <mask
       id="mask-34"
       maskContentUnits="userSpaceOnUse"
       maskUnits="objectBoundingBox"
       x="0"
       y="0"
       width="44"
       height="44"
       fill="white">
      <use
         xlink:href="#path-33"
         id="use6821" />
    </mask>
    <circle
       id="path-35"
       cx="22"
       cy="22"
       r="22" />
    <mask
       id="mask-36"
       maskContentUnits="userSpaceOnUse"
       maskUnits="objectBoundingBox"
       x="0"
       y="0"
       width="44"
       height="44"
       fill="white">
      <use
         xlink:href="#path-35"
         id="use6825" />
    </mask>
    <circle
       id="path-37"
       cx="22"
       cy="22"
       r="22" />
    <mask
       id="mask-38"
       maskContentUnits="userSpaceOnUse"
       maskUnits="objectBoundingBox"
       x="0"
       y="0"
       width="44"
       height="44"
       fill="white">
      <use
         xlink:href="#path-37"
         id="use6829" />
    </mask>
    <circle
       id="path-39"
       cx="22"
       cy="22"
       r="22" />
    <mask
       id="mask-40"
       maskContentUnits="userSpaceOnUse"
       maskUnits="objectBoundingBox"
       x="0"
       y="0"
       width="44"
       height="44"
       fill="white">
      <use
         xlink:href="#path-39"
         id="use6833" />
    </mask>
    <circle
       id="path-41"
       cx="22"
       cy="22"
       r="22" />
    <mask
       id="mask-42"
       maskContentUnits="userSpaceOnUse"
       maskUnits="objectBoundingBox"
       x="0"
       y="0"
       width="44"
       height="44"
       fill="white">
      <use
         xlink:href="#path-41"
         id="use6837" />
    </mask>
    <circle
       id="path-43"
       cx="22"
       cy="22"
       r="22" />
    <mask
       id="mask-44"
       maskContentUnits="userSpaceOnUse"
       maskUnits="objectBoundingBox"
       x="0"
       y="0"
       width="44"
       height="44"
       fill="white">
      <use
         xlink:href="#path-43"
         id="use6841" />
    </mask>
    <circle
       id="path-45"
       cx="22"
       cy="22"
       r="22" />
    <mask
       id="mask-46"
       maskContentUnits="userSpaceOnUse"
       maskUnits="objectBoundingBox"
       x="0"
       y="0"
       width="44"
       height="44"
       fill="white">
      <use
         xlink:href="#path-45"
         id="use6845" />
    </mask>
    <circle
       id="path-47"
       cx="22"
       cy="22"
       r="22" />
    <mask
       id="mask-48"
       maskContentUnits="userSpaceOnUse"
       maskUnits="objectBoundingBox"
       x="0"
       y="0"
       width="44"
       height="44"
       fill="white">
      <use
         xlink:href="#path-47"
         id="use6849" />
    </mask>
    <circle
       id="path-49"
       cx="22"
       cy="22"
       r="22" />
    <mask
       id="mask-50"
       maskContentUnits="userSpaceOnUse"
       maskUnits="objectBoundingBox"
       x="0"
       y="0"
       width="44"
       height="44"
       fill="white">
      <use
         xlink:href="#path-49"
         id="use6853" />
    </mask>
    <circle
       id="path-51"
       cx="22"
       cy="22"
       r="22" />
    <mask
       id="mask-52"
       maskContentUnits="userSpaceOnUse"
       maskUnits="objectBoundingBox"
       x="0"
       y="0"
       width="44"
       height="44"
       fill="white">
      <use
         xlink:href="#path-51"
         id="use6857" />
    </mask>
    <circle
       id="path-53"
       cx="22"
       cy="22"
       r="22" />
    <mask
       id="mask-54"
       maskContentUnits="userSpaceOnUse"
       maskUnits="objectBoundingBox"
       x="0"
       y="0"
       width="44"
       height="44"
       fill="white">
      <use
         xlink:href="#path-53"
         id="use6861" />
    </mask>
    <circle
       id="path-55"
       cx="22"
       cy="22"
       r="22" />
    <mask
       id="mask-56"
       maskContentUnits="userSpaceOnUse"
       maskUnits="objectBoundingBox"
       x="0"
       y="0"
       width="44"
       height="44"
       fill="white">
      <use
         xlink:href="#path-55"
         id="use6865" />
    </mask>
    <circle
       id="path-57"
       cx="22"
       cy="22"
       r="22" />
    <mask
       id="mask-58"
       maskContentUnits="userSpaceOnUse"
       maskUnits="objectBoundingBox"
       x="0"
       y="0"
       width="44"
       height="44"
       fill="white">
      <use
         xlink:href="#path-57"
         id="use6869" />
    </mask>
    <circle
       id="path-59"
       cx="22"
       cy="22"
       r="22" />
    <mask
       id="mask-60"
       maskContentUnits="userSpaceOnUse"
       maskUnits="objectBoundingBox"
       x="0"
       y="0"
       width="44"
       height="44"
       fill="white">
      <use
         xlink:href="#path-59"
         id="use6873" />
    </mask>
    <circle
       id="path-61"
       cx="22"
       cy="22"
       r="22" />
    <mask
       id="mask-62"
       maskContentUnits="userSpaceOnUse"
       maskUnits="objectBoundingBox"
       x="0"
       y="0"
       width="44"
       height="44"
       fill="white">
      <use
         xlink:href="#path-61"
         id="use6877" />
    </mask>
    <circle
       id="path-63"
       cx="22"
       cy="22"
       r="22" />
    <mask
       id="mask-64"
       maskContentUnits="userSpaceOnUse"
       maskUnits="objectBoundingBox"
       x="0"
       y="0"
       width="44"
       height="44"
       fill="white">
      <use
         xlink:href="#path-63"
         id="use6881" />
    </mask>
    <circle
       id="path-65"
       cx="22"
       cy="22"
       r="22" />
    <mask
       id="mask-66"
       maskContentUnits="userSpaceOnUse"
       maskUnits="objectBoundingBox"
       x="0"
       y="0"
       width="44"
       height="44"
       fill="white">
      <use
         xlink:href="#path-65"
         id="use6885" />
    </mask>
    <circle
       id="path-67"
       cx="22"
       cy="22"
       r="22" />
    <mask
       id="mask-68"
       maskContentUnits="userSpaceOnUse"
       maskUnits="objectBoundingBox"
       x="0"
       y="0"
       width="44"
       height="44"
       fill="white">
      <use
         xlink:href="#path-67"
         id="use6889" />
    </mask>
    <circle
       id="path-69"
       cx="22"
       cy="22"
       r="22" />
    <mask
       id="mask-70"
       maskContentUnits="userSpaceOnUse"
       maskUnits="objectBoundingBox"
       x="0"
       y="0"
       width="44"
       height="44"
       fill="white">
      <use
         xlink:href="#path-69"
         id="use6893" />
    </mask>
    <circle
       id="path-71"
       cx="22"
       cy="22"
       r="22" />
    <mask
       id="mask-72"
       maskContentUnits="userSpaceOnUse"
       maskUnits="objectBoundingBox"
       x="0"
       y="0"
       width="44"
       height="44"
       fill="white">
      <use
         xlink:href="#path-71"
         id="use6897" />
    </mask>
    <circle
       id="path-73"
       cx="22"
       cy="22"
       r="22" />
    <mask
       id="mask-74"
       maskContentUnits="userSpaceOnUse"
       maskUnits="objectBoundingBox"
       x="0"
       y="0"
       width="44"
       height="44"
       fill="white">
      <use
         xlink:href="#path-73"
         id="use6901" />
    </mask>
    <circle
       id="path-75"
       cx="22"
       cy="22"
       r="22" />
    <mask
       id="mask-76"
       maskContentUnits="userSpaceOnUse"
       maskUnits="objectBoundingBox"
       x="0"
       y="0"
       width="44"
       height="44"
       fill="white">
      <use
         xlink:href="#path-75"
         id="use6905" />
    </mask>
    <circle
       id="path-77"
       cx="22"
       cy="22"
       r="22" />
    <mask
       id="mask-78"
       maskContentUnits="userSpaceOnUse"
       maskUnits="objectBoundingBox"
       x="0"
       y="0"
       width="44"
       height="44"
       fill="white">
      <use
         xlink:href="#path-77"
         id="use6909" />
    </mask>
    <circle
       id="path-79"
       cx="22"
       cy="22"
       r="22" />
    <mask
       id="mask-80"
       maskContentUnits="userSpaceOnUse"
       maskUnits="objectBoundingBox"
       x="0"
       y="0"
       width="44"
       height="44"
       fill="white">
      <use
         xlink:href="#path-79"
         id="use6913" />
    </mask>
    <circle
       id="path-81"
       cx="22"
       cy="22"
       r="22" />
    <mask
       id="mask-82"
       maskContentUnits="userSpaceOnUse"
       maskUnits="objectBoundingBox"
       x="0"
       y="0"
       width="44"
       height="44"
       fill="white">
      <use
         xlink:href="#path-81"
         id="use6917" />
    </mask>
    <circle
       id="path-83"
       cx="22"
       cy="22"
       r="22" />
    <mask
       id="mask-84"
       maskContentUnits="userSpaceOnUse"
       maskUnits="objectBoundingBox"
       x="0"
       y="0"
       width="44"
       height="44"
       fill="white">
      <use
         xlink:href="#path-83"
         id="use6921" />
    </mask>
    <circle
       id="path-85"
       cx="22"
       cy="22"
       r="22" />
    <mask
       id="mask-86"
       maskContentUnits="userSpaceOnUse"
       maskUnits="objectBoundingBox"
       x="0"
       y="0"
       width="44"
       height="44"
       fill="white">
      <use
         xlink:href="#path-85"
         id="use6925" />
    </mask>
    <circle
       id="path-87"
       cx="22"
       cy="22"
       r="22" />
    <mask
       id="mask-88"
       maskContentUnits="userSpaceOnUse"
       maskUnits="objectBoundingBox"
       x="0"
       y="0"
       width="44"
       height="44"
       fill="white">
      <use
         xlink:href="#path-87"
         id="use6929" />
    </mask>
    <circle
       id="path-89"
       cx="22"
       cy="22"
       r="22" />
    <mask
       id="mask-90"
       maskContentUnits="userSpaceOnUse"
       maskUnits="objectBoundingBox"
       x="0"
       y="0"
       width="44"
       height="44"
       fill="white">
      <use
         xlink:href="#path-89"
         id="use6933" />
    </mask>
    <circle
       id="path-91"
       cx="22"
       cy="22"
       r="22" />
    <mask
       id="mask-92"
       maskContentUnits="userSpaceOnUse"
       maskUnits="objectBoundingBox"
       x="0"
       y="0"
       width="44"
       height="44"
       fill="white">
      <use
         xlink:href="#path-91"
         id="use6937" />
    </mask>
    <circle
       id="path-93"
       cx="22"
       cy="22"
       r="22" />
    <mask
       id="mask-94"
       maskContentUnits="userSpaceOnUse"
       maskUnits="objectBoundingBox"
       x="0"
       y="0"
       width="44"
       height="44"
       fill="white">
      <use
         xlink:href="#path-93"
         id="use6941" />
    </mask>
    <circle
       id="path-95"
       cx="22"
       cy="22"
       r="22" />
    <mask
       id="mask-96"
       maskContentUnits="userSpaceOnUse"
       maskUnits="objectBoundingBox"
       x="0"
       y="0"
       width="44"
       height="44"
       fill="white">
      <use
         xlink:href="#path-95"
         id="use6945" />
    </mask>
    <circle
       id="path-97"
       cx="22"
       cy="22"
       r="22" />
    <mask
       id="mask-98"
       maskContentUnits="userSpaceOnUse"
       maskUnits="objectBoundingBox"
       x="0"
       y="0"
       width="44"
       height="44"
       fill="white">
      <use
         xlink:href="#path-97"
         id="use6949" />
    </mask>
    <circle
       id="path-99"
       cx="22"
       cy="22"
       r="22" />
    <mask
       id="mask-100"
       maskContentUnits="userSpaceOnUse"
       maskUnits="objectBoundingBox"
       x="0"
       y="0"
       width="44"
       height="44"
       fill="white">
      <use
         xlink:href="#path-99"
         id="use6953" />
    </mask>
    <circle
       id="path-101"
       cx="22"
       cy="22"
       r="22" />
    <mask
       id="mask-102"
       maskContentUnits="userSpaceOnUse"
       maskUnits="objectBoundingBox"
       x="0"
       y="0"
       width="44"
       height="44"
       fill="white">
      <use
         xlink:href="#path-101"
         id="use6957" />
    </mask>
    <circle
       id="path-103"
       cx="22"
       cy="22"
       r="22" />
    <mask
       id="mask-104"
       maskContentUnits="userSpaceOnUse"
       maskUnits="objectBoundingBox"
       x="0"
       y="0"
       width="44"
       height="44"
       fill="white">
      <use
         xlink:href="#path-103"
         id="use6961" />
    </mask>
    <circle
       id="path-105"
       cx="22"
       cy="22"
       r="22" />
    <mask
       id="mask-106"
       maskContentUnits="userSpaceOnUse"
       maskUnits="objectBoundingBox"
       x="0"
       y="0"
       width="44"
       height="44"
       fill="white">
      <use
         xlink:href="#path-105"
         id="use6965" />
    </mask>
    <circle
       id="path-107"
       cx="22"
       cy="22"
       r="22" />
    <mask
       id="mask-108"
       maskContentUnits="userSpaceOnUse"
       maskUnits="objectBoundingBox"
       x="0"
       y="0"
       width="44"
       height="44"
       fill="white">
      <use
         xlink:href="#path-107"
         id="use6969" />
    </mask>
    <circle
       id="path-109"
       cx="22"
       cy="22"
       r="22" />
    <mask
       id="mask-110"
       maskContentUnits="userSpaceOnUse"
       maskUnits="objectBoundingBox"
       x="0"
       y="0"
       width="44"
       height="44"
       fill="white">
      <use
         xlink:href="#path-109"
         id="use6973" />
    </mask>
    <circle
       id="path-111"
       cx="22"
       cy="22"
       r="22" />
    <mask
       id="mask-112"
       maskContentUnits="userSpaceOnUse"
       maskUnits="objectBoundingBox"
       x="0"
       y="0"
       width="44"
       height="44"
       fill="white">
      <use
         xlink:href="#path-111"
         id="use6977" />
    </mask>
    <circle
       id="path-113"
       cx="22"
       cy="22"
       r="22" />
    <mask
       id="mask-114"
       maskContentUnits="userSpaceOnUse"
       maskUnits="objectBoundingBox"
       x="0"
       y="0"
       width="44"
       height="44"
       fill="white">
      <use
         xlink:href="#path-113"
         id="use6981" />
    </mask>
    <circle
       id="path-115"
       cx="22"
       cy="22"
       r="22" />
    <mask
       id="mask-116"
       maskContentUnits="userSpaceOnUse"
       maskUnits="objectBoundingBox"
       x="0"
       y="0"
       width="44"
       height="44"
       fill="white">
      <use
         xlink:href="#path-115"
         id="use6985" />
    </mask>
    <circle
       id="path-117"
       cx="22"
       cy="22"
       r="22" />
    <mask
       id="mask-118"
       maskContentUnits="userSpaceOnUse"
       maskUnits="objectBoundingBox"
       x="0"
       y="0"
       width="44"
       height="44"
       fill="white">
      <use
         xlink:href="#path-117"
         id="use6989" />
    </mask>
    <circle
       id="path-119"
       cx="22"
       cy="22"
       r="22" />
    <mask
       id="mask-120"
       maskContentUnits="userSpaceOnUse"
       maskUnits="objectBoundingBox"
       x="0"
       y="0"
       width="44"
       height="44"
       fill="white">
      <use
         xlink:href="#path-119"
         id="use6993" />
    </mask>
    <circle
       id="path-121"
       cx="22"
       cy="22"
       r="22" />
    <mask
       id="mask-122"
       maskContentUnits="userSpaceOnUse"
       maskUnits="objectBoundingBox"
       x="0"
       y="0"
       width="44"
       height="44"
       fill="white">
      <use
         xlink:href="#path-121"
         id="use6997" />
    </mask>
    <circle
       id="path-123"
       cx="22"
       cy="22"
       r="22" />
    <mask
       id="mask-124"
       maskContentUnits="userSpaceOnUse"
       maskUnits="objectBoundingBox"
       x="0"
       y="0"
       width="44"
       height="44"
       fill="white">
      <use
         xlink:href="#path-123"
         id="use7001" />
    </mask>
    <circle
       id="path-125"
       cx="22"
       cy="22"
       r="22" />
    <mask
       id="mask-126"
       maskContentUnits="userSpaceOnUse"
       maskUnits="objectBoundingBox"
       x="0"
       y="0"
       width="44"
       height="44"
       fill="white">
      <use
         xlink:href="#path-125"
         id="use7005" />
    </mask>
    <circle
       id="path-127"
       cx="22"
       cy="22"
       r="22" />
    <mask
       id="mask-128"
       maskContentUnits="userSpaceOnUse"
       maskUnits="objectBoundingBox"
       x="0"
       y="0"
       width="44"
       height="44"
       fill="white">
      <use
         xlink:href="#path-127"
         id="use7009" />
    </mask>
    <circle
       id="path-129"
       cx="22"
       cy="22"
       r="22" />
    <mask
       id="mask-130"
       maskContentUnits="userSpaceOnUse"
       maskUnits="objectBoundingBox"
       x="0"
       y="0"
       width="44"
       height="44"
       fill="white">
      <use
         xlink:href="#path-129"
         id="use7013" />
    </mask>
    <circle
       id="path-131"
       cx="22"
       cy="22"
       r="22" />
    <mask
       id="mask-132"
       maskContentUnits="userSpaceOnUse"
       maskUnits="objectBoundingBox"
       x="0"
       y="0"
       width="44"
       height="44"
       fill="white">
      <use
         xlink:href="#path-131"
         id="use7017" />
    </mask>
    <circle
       id="path-133"
       cx="22"
       cy="22"
       r="22" />
    <mask
       id="mask-134"
       maskContentUnits="userSpaceOnUse"
       maskUnits="objectBoundingBox"
       x="0"
       y="0"
       width="44"
       height="44"
       fill="white">
      <use
         xlink:href="#path-133"
         id="use7021" />
    </mask>
    <circle
       id="path-135"
       cx="22"
       cy="22"
       r="22" />
    <mask
       id="mask-136"
       maskContentUnits="userSpaceOnUse"
       maskUnits="objectBoundingBox"
       x="0"
       y="0"
       width="44"
       height="44"
       fill="white">
      <use
         xlink:href="#path-135"
         id="use7025" />
    </mask>
    <circle
       id="path-137"
       cx="22"
       cy="22"
       r="22" />
    <mask
       id="mask-138"
       maskContentUnits="userSpaceOnUse"
       maskUnits="objectBoundingBox"
       x="0"
       y="0"
       width="44"
       height="44"
       fill="white">
      <use
         xlink:href="#path-137"
         id="use7029" />
    </mask>
    <circle
       id="path-139"
       cx="22"
       cy="22"
       r="22" />
    <mask
       id="mask-140"
       maskContentUnits="userSpaceOnUse"
       maskUnits="objectBoundingBox"
       x="0"
       y="0"
       width="44"
       height="44"
       fill="white">
      <use
         xlink:href="#path-139"
         id="use7033" />
    </mask>
    <circle
       id="path-141"
       cx="22"
       cy="22"
       r="22" />
    <mask
       id="mask-142"
       maskContentUnits="userSpaceOnUse"
       maskUnits="objectBoundingBox"
       x="0"
       y="0"
       width="44"
       height="44"
       fill="white">
      <use
         xlink:href="#path-141"
         id="use7037" />
    </mask>
    <circle
       id="path-143"
       cx="22"
       cy="22"
       r="22" />
    <mask
       id="mask-144"
       maskContentUnits="userSpaceOnUse"
       maskUnits="objectBoundingBox"
       x="0"
       y="0"
       width="44"
       height="44"
       fill="white">
      <use
         xlink:href="#path-143"
         id="use7041" />
    </mask>
    <circle
       id="path-145"
       cx="22"
       cy="22"
       r="22" />
    <mask
       id="mask-146"
       maskContentUnits="userSpaceOnUse"
       maskUnits="objectBoundingBox"
       x="0"
       y="0"
       width="44"
       height="44"
       fill="white">
      <use
         xlink:href="#path-145"
         id="use7045" />
    </mask>
    <circle
       id="path-147"
       cx="22"
       cy="22"
       r="22" />
    <mask
       id="mask-148"
       maskContentUnits="userSpaceOnUse"
       maskUnits="objectBoundingBox"
       x="0"
       y="0"
       width="44"
       height="44"
       fill="white">
      <use
         xlink:href="#path-147"
         id="use7049" />
    </mask>
    <circle
       id="path-149"
       cx="22"
       cy="22"
       r="22" />
    <mask
       id="mask-150"
       maskContentUnits="userSpaceOnUse"
       maskUnits="objectBoundingBox"
       x="0"
       y="0"
       width="44"
       height="44"
       fill="white">
      <use
         xlink:href="#path-149"
         id="use7053" />
    </mask>
    <circle
       id="path-151"
       cx="22"
       cy="22"
       r="22" />
    <mask
       id="mask-152"
       maskContentUnits="userSpaceOnUse"
       maskUnits="objectBoundingBox"
       x="0"
       y="0"
       width="44"
       height="44"
       fill="white">
      <use
         xlink:href="#path-151"
         id="use7057" />
    </mask>
    <circle
       id="path-153"
       cx="22"
       cy="22"
       r="22" />
    <mask
       id="mask-154"
       maskContentUnits="userSpaceOnUse"
       maskUnits="objectBoundingBox"
       x="0"
       y="0"
       width="44"
       height="44"
       fill="white">
      <use
         xlink:href="#path-153"
         id="use7061" />
    </mask>
    <circle
       id="path-155"
       cx="22"
       cy="22"
       r="22" />
    <mask
       id="mask-156"
       maskContentUnits="userSpaceOnUse"
       maskUnits="objectBoundingBox"
       x="0"
       y="0"
       width="44"
       height="44"
       fill="white">
      <use
         xlink:href="#path-155"
         id="use7065" />
    </mask>
    <circle
       id="path-157"
       cx="22"
       cy="22"
       r="22" />
    <mask
       id="mask-158"
       maskContentUnits="userSpaceOnUse"
       maskUnits="objectBoundingBox"
       x="0"
       y="0"
       width="44"
       height="44"
       fill="white">
      <use
         xlink:href="#path-157"
         id="use7069" />
    </mask>
    <circle
       id="path-159"
       cx="22"
       cy="22"
       r="22" />
    <mask
       id="mask-160"
       maskContentUnits="userSpaceOnUse"
       maskUnits="objectBoundingBox"
       x="0"
       y="0"
       width="44"
       height="44"
       fill="white">
      <use
         xlink:href="#path-159"
         id="use7073" />
    </mask>
  </defs>
  <g
     inkscape:label="Layer 1"
     inkscape:groupmode="layer"
     id="layer1">
    <g
       id="mail"
       transform="matrix(1.8181818,0,0,1.8181818,10,10)"
       style="fill:none;fill-rule:evenodd;stroke:none;stroke-width:1">
      <rect
         id="rect7232"
         x="0"
         y="0"
         width="44"
         height="44" />
      <use
         id="use7234"
         stroke="#000000"
         mask="url(#mask-46)"
         stroke-width="4"
         xlink:href="#path-45"
         x="0"
         y="0"
         width="100%"
         height="100%" />
      <path
         d="m 13.111548,18.931918 c 0.278315,0.181739 1.117178,0.721655 2.51674,1.619331 1.399561,0.897676 2.471685,1.588926 3.21652,2.073609 0.08182,0.05314 0.255712,0.168628 0.521671,0.346602 0.265959,0.178112 0.487014,0.322192 0.662863,0.431961 0.176,0.109768 0.388768,0.232927 0.638452,0.369196 0.249685,0.136269 0.485055,0.238646 0.705959,0.306571 0.221055,0.06834 0.425685,0.102237 0.613891,0.102237 H 22 22.01236 c 0.188206,0 0.392836,-0.03389 0.613891,-0.102237 0.220904,-0.06792 0.456424,-0.170441 0.705958,-0.306571 0.249535,-0.136409 0.462302,-0.259428 0.638302,-0.369196 0.176,-0.109769 0.396904,-0.253849 0.662863,-0.431961 0.265959,-0.178113 0.44,-0.293461 0.521822,-0.346602 0.752822,-0.484823 2.668178,-1.71585 5.745465,-3.693219 0.597466,-0.386213 1.096535,-0.852207 1.497658,-1.397702 C 32.799589,16.98872 33,16.416723 33,15.818226 33,15.3182 32.805466,14.890144 32.416699,14.534059 32.027931,14.177973 31.567438,14 31.035671,14 H 12.964178 C 12.334014,14 11.84911,14.196942 11.509466,14.590826 11.169822,14.984849 11,15.477344 11,16.068169 c 0,0.477292 0.225123,0.994474 0.675219,1.551267 0.450096,0.556794 0.928973,0.994334 1.436329,1.312482 z m 18.660671,1.215823 c -2.684301,1.681678 -4.722466,2.988581 -6.113589,3.920428 -0.46652,0.318148 -0.845041,0.566418 -1.135712,0.744252 -0.290521,0.178112 -0.677178,0.359851 -1.160124,0.545495 -0.482794,0.185645 -0.93289,0.278397 -1.350287,0.278397 H 22 21.987644 c -0.417397,0 -0.867644,-0.09275 -1.350439,-0.278397 -0.482794,-0.185644 -0.869602,-0.367383 -1.160123,-0.545495 -0.29052,-0.177834 -0.669041,-0.426104 -1.135561,-0.744252 C 17.236548,23.3182 15.202753,22.011298 12.239986,20.147741 11.773466,19.86 11.360137,19.530275 11,19.159126 v 9.022508 c 0,0.500166 0.192274,0.928082 0.576973,1.284168 C 11.961671,29.822027 12.424123,30 12.964329,30 h 18.071493 c 0.540055,0 1.002507,-0.177973 1.387205,-0.534198 C 32.807877,29.109577 33,28.6818 33,28.181634 v -9.022508 c -0.352,0.363478 -0.76111,0.693202 -1.227781,0.988615 z"
         id="path7236"
         fill="#000000" />
    </g>
  </g>
</svg>
